<svg id="visual" viewBox="0 0 900 1500" width="900" height="1500" xmlns="http://www.w3.org/2000/svg" xmlns:xlink="http://www.w3.org/1999/xlink" version="1.1"><path d="M0 76L75 73.5C150 71 300 66 450 68.5C600 71 750 81 825 86L900 91L900 0L825 0C750 0 600 0 450 0C300 0 150 0 75 0L0 0Z" fill="#6198ff"></path><path d="M0 181L75 183.5C150 186 300 191 450 191C600 191 750 186 825 183.5L900 181L900 89L825 84C750 79 600 69 450 66.5C300 64 150 69 75 71.5L0 74Z" fill="#548fff"></path><path d="M0 256L75 261C150 266 300 276 450 271C600 266 750 246 825 236L900 226L900 179L825 181.5C750 184 600 189 450 189C300 189 150 184 75 181.5L0 179Z" fill="#4686ff"></path><path d="M0 346L75 348.5C150 351 300 356 450 348.5C600 341 750 321 825 311L900 301L900 224L825 234C750 244 600 264 450 269C300 274 150 264 75 259L0 254Z" fill="#387dff"></path><path d="M0 421L75 421C150 421 300 421 450 411C600 401 750 381 825 371L900 361L900 299L825 309C750 319 600 339 450 346.5C300 354 150 349 75 346.5L0 344Z" fill="#2874ff"></path><path d="M0 676L75 686C150 696 300 716 450 706C600 696 750 656 825 636L900 616L900 359L825 369C750 379 600 399 450 409C300 419 150 419 75 419L0 419Z" fill="#126bff"></path><path d="M0 736L75 753.5C150 771 300 806 450 803.5C600 801 750 761 825 741L900 721L900 614L825 634C750 654 600 694 450 704C300 714 150 694 75 684L0 674Z" fill="#0064f9"></path><path d="M0 871L75 888.5C150 906 300 941 450 928.5C600 916 750 856 825 826L900 796L900 719L825 739C750 759 600 799 450 801.5C300 804 150 769 75 751.5L0 734Z" fill="#005fec"></path><path d="M0 1006L75 1021C150 1036 300 1066 450 1053.5C600 1041 750 986 825 958.5L900 931L900 794L825 824C750 854 600 914 450 926.5C300 939 150 904 75 886.5L0 869Z" fill="#005ae0"></path><path d="M0 1336L75 1323.5C150 1311 300 1286 450 1278.5C600 1271 750 1281 825 1286L900 1291L900 929L825 956.5C750 984 600 1039 450 1051.5C300 1064 150 1034 75 1019L0 1004Z" fill="#0055d3"></path><path d="M0 1441L75 1426C150 1411 300 1381 450 1363.5C600 1346 750 1341 825 1338.5L900 1336L900 1289L825 1284C750 1279 600 1269 450 1276.5C300 1284 150 1309 75 1321.5L0 1334Z" fill="#0051c7"></path><path d="M0 1501L75 1501C150 1501 300 1501 450 1501C600 1501 750 1501 825 1501L900 1501L900 1334L825 1336.5C750 1339 600 1344 450 1361.5C300 1379 150 1409 75 1424L0 1439Z" fill="#004cbb"></path></svg>